# xmcd
#
# Track frame offsets:
#	187
#	14285
#	39607
#	54905
#	96827
#	122010
#	131637
#	153990
#	175600
#	196355
#
# Disc length: 2754 seconds
#
# Revision: 1
# Processed by: cddbd v1.5.1PL0 Copyright (c) Steve Scherf et al.
# Submitted via: CDex 1.50Beta5
#
DISCID=7a0ac00a
DTITLE=ウイーン・ベラ・ムジカ・アンサンブル - Vienne Dances 1850
DYEAR=1900
DGENRE=
TTITLE0=美しいイダ
TTITLE1=踊りの楽しみ
TTITLE2=新ピチカート・ポルカ
TTITLE3=求婚者
TTITLE4=新ウイーン・レントラー
TTITLE5=ウイーンの舞曲
TTITLE6=リンツの舞曲
TTITLE7=シュテルツミューラーの舞曲
TTITLE8=シュノフラー舞曲
TTITLE9=シュペール・ポルカ
EXTD=
EXTT0=
EXTT1=
EXTT2=
EXTT3=
EXTT4=
EXTT5=
EXTT6=
EXTT7=
EXTT8=
EXTT9=
PLAYORDER=
